<svg xmlns="http://www.w3.org/2000/svg" viewBox="0 0 512 512"><defs/><g fill="#FFF"><path d="M352 220c0-11-8-20-20-20H126a20 20 0 100 40h206c12 0 20-9 20-20zM126 280a20 20 0 100 40h126a20 20 0 100-40H126z"/><path d="M173 472h-66c-22 0-40-18-40-40V80c0-22 18-40 40-40h245c23 0 40 18 40 40v123a20 20 0 1040 0V80c0-44-35-80-80-80H107C62 0 27 36 27 80v352c0 44 35 80 80 80h66a20 20 0 100-40z"/><path d="M468 290a60 60 0 00-85 0L273 399l-5 8-24 79a20 20 0 0025 25l81-22 8-5 110-110c23-23 23-61 0-84zM334 452l-41 11 12-39 74-74 28 28-73 74zm106-106l-4 4-29-28 4-4a20 20 0 0129 28zM332 120H126a20 20 0 100 40h206a20 20 0 100-40z"/></g></svg>