<svg xmlns="http://www.w3.org/2000/svg" viewBox="0 0 56 56"><defs/><g fill="#FFF"><path d="M12 24a6 6 0 100-12 6 6 0 000 12zm0-10a4 4 0 110 8 4 4 0 010-8zM44 24a6 6 0 100-12 6 6 0 000 12zm0-10a4 4 0 110 8 4 4 0 010-8zM54 26v13a3 3 0 01-3 3V31a5 5 0 00-5-5h-5a1 1 0 00-1 1v6h-8a1 1 0 00-1 1v3h-6v-3c0-.6-.4-1-1-1h-8v-6c0-.6-.4-1-1-1h-5a5 5 0 00-5 5v11a3 3 0 01-3-3V26H0v13a5 5 0 003 4.6V56h2V44h10v11c0 .6.4 1 1 1h5V39h14v17h5c.6 0 1-.4 1-1V44h10v12h2V43.6a5 5 0 003-4.6V26h-2zM20 37h-8v-6h-2v7c0 .6.4 1 1 1h7c.6 0 1 .4 1 1v14h-2V43c0-.6-.4-1-1-1H7V31a3 3 0 013-3h4v6c0 .6.4 1 1 1h8v2h-3zm20 5a1 1 0 00-1 1v11h-2V40c0-.6.4-1 1-1h7c.6 0 1-.4 1-1v-7h-2v6H33v-2h8c.6 0 1-.4 1-1v-6h4a3 3 0 013 3v11h-9zM19 10v3a1 1 0 001.8.6l2.7-3.6H31a3 3 0 003-3V3a3 3 0 00-3-3H19a3 3 0 00-3 3v4a3 3 0 003 3zm-1-7c0-.6.4-1 1-1h12c.6 0 1 .4 1 1v4c0 .6-.4 1-1 1h-8a1 1 0 00-.8.4L21 10V9c0-.6-.4-1-1-1h-1a1 1 0 01-1-1V3z"/><path d="M20 4h10v2H20zM27 25h6v2h-6z"/><path d="M26 21a3 3 0 00-3 3v4a3 3 0 003 3h8a3 3 0 003-3v-.7l1.8-2.7A1 1 0 0038 23h-1.2a3 3 0 00-2.8-2h-8zm9 3c0 .6.4 1 1 1h.1l-1 1.4a1 1 0 00-.1.6v1c0 .6-.4 1-1 1h-8a1 1 0 01-1-1v-4c0-.6.4-1 1-1h8c.6 0 1 .4 1 1zM23 16h2v2h-2zM27 16h2v2h-2zM31 16h2v2h-2z"/></g></svg>